<?xml version="1.0" encoding="UTF-8"?>
<svg xmlns="http://www.w3.org/2000/svg" width="400" height="400" viewBox="0 0 400 400">
  <g id="Layer_2" data-name="Layer 2">
    <rect width="400" height="400" fill="#10151a"/>
  </g>
  <g id="Layer_1" data-name="Layer 1">
    <rect x="34" y="72" width="332" height="256" fill="#10151a"/>
    <path d="M348,88H52v224h296V88h0ZM76,112h248v176H76V112Z" fill="#f3f4f2"/>
    <path d="M324,224h-8v-16h-16v-16h-16v-16h-16v-16h-16v16h-16v16h-16v16h-16v16h-16v16h-16v-16h-16v-16h-16v16h-16v16h-16v16h-16v16h-16v16h56.11c-2.65,7.51-4.11,15.58-4.11,24,0,39.76,32.24,72,72,72s72-32.24,72-72c0-8.42-1.46-16.49-4.11-24h56.11v-64Z" fill="#10151a"/>
    <polygon points="76 112 76 272 92 272 92 256 108 256 108 240 124 240 124 224 140 224 140 208 156 208 156 224 172 224 172 240 188 240 188 224 204 224 204 208 220 208 220 192 236 192 236 176 252 176 252 160 268 160 268 176 284 176 284 192 300 192 300 208 316 208 316 224 324 224 324 112 76 112" fill="#506cc6"/>
    <circle cx="200" cy="312" r="56" fill="#506cc6"/>
    <rect x="100" y="136" width="48" height="48" transform="translate(-36 284) rotate(-90)" fill="#f3f4f2"/>
    <path id="Discord-Symbol-White" d="M211.89,280c-.83,1.46-1.57,2.98-2.24,4.53-6.4-.96-12.91-.96-19.33,0-.66-1.55-1.41-3.06-2.24-4.53-6.01,1.03-11.87,2.83-17.43,5.37-11.01,16.32-13.99,32.21-12.51,47.89,6.45,4.77,13.67,8.4,21.37,10.73,1.73-2.32,3.27-4.8,4.58-7.37-2.49-.93-4.9-2.09-7.21-3.43.61-.44,1.2-.89,1.77-1.33,13.52,6.36,29.18,6.36,42.72,0,.57.47,1.16.93,1.77,1.33-2.31,1.36-4.71,2.51-7.22,3.45,1.31,2.58,2.85,5.05,4.58,7.37,7.69-2.32,14.92-5.94,21.37-10.71,1.75-18.18-3-33.94-12.54-47.9-5.54-2.54-11.4-4.34-17.41-5.35l-.02-.03ZM185.97,323.61c-4.16,0-7.61-3.77-7.61-8.44s3.32-8.45,7.59-8.45,7.68,3.81,7.61,8.45c-.07,4.65-3.35,8.44-7.59,8.44ZM214.02,323.61c-4.18,0-7.59-3.77-7.59-8.44s3.32-8.45,7.59-8.45,7.66,3.81,7.59,8.45c-.07,4.65-3.35,8.44-7.59,8.44Z" fill="#fff"/>
  </g>
</svg>