<?xml version="1.0" encoding="UTF-8"?>
<svg id="Layer_1" data-name="Layer 1" xmlns="http://www.w3.org/2000/svg" viewBox="0 0 400 400">
  <defs>
    <style>
      .cls-1 {
        fill: #5865f2;
      }

      .cls-2 {
        fill: #fff;
      }
    </style>
  </defs>
  <circle class="cls-1" cx="200" cy="200" r="192"/>
  <path class="cls-2" d="M332.05,103.61s-.03-.02-.05-.03c-.08-.05-.17-.09-.25-.14-.79-.45-1.58-.88-2.39-1.3-.13-.07-.27-.14-.4-.21-1.82-.92-3.68-1.77-5.6-2.52-.24-.09-.48-.18-.71-.27-.66-.25-1.31-.49-1.98-.71-.39-.13-.79-.26-1.18-.39-.26-.08-.52-.18-.79-.26-13.23-37.64-48.6-62.78-88.68-62.78-21.41,0-42.25,7.35-58.88,20.73-3.68-.49-7.41-.73-11.12-.73-29.63,0-57.13,15.72-72.25,41.16-2.35.46-4.68,1.06-6.98,1.79-26.41,8.22-44.78,32.61-44.78,61.05,0,35.29,28.71,64,64,64h24c2.21,0,4-1.79,4-4s-1.79-4-4-4h-24c-30.88,0-56-25.12-56-56,0-20.47,10.87-38.53,27.58-48.31.14-.06.28-.11.42-.19,3.16-1.83,6.45-3.32,9.83-4.48.26-.09.53-.18.79-.26.43-.14.86-.27,1.29-.4.64-.19,1.28-.37,1.93-.54.03,0,.07-.02.1-.03,1.62-.42,3.28-.76,4.96-1.04.05,0,.09-.03.14-.04,7.71-1.25,15.67-.88,23.44,1.2,14.45,3.87,26.52,13.14,34,26.09.74,1.28,2.09,2,3.47,2,.68,0,1.37-.17,2-.54,1.91-1.1,2.57-3.55,1.46-5.46-8.55-14.8-22.35-25.4-38.86-29.82-6.12-1.64-12.35-2.36-18.51-2.18,14.17-19.92,37.24-32,61.95-32,3.9,0,7.83.3,11.68.89,1.14.17,2.29-.15,3.18-.89,15.42-12.9,35.01-20.01,55.14-20.01,34.97,0,66.01,20.91,79.31,52.7-25.18-3.67-51.26,7.95-64.74,31.3-1.1,1.91-.45,4.36,1.46,5.46.63.36,1.32.54,2,.54,1.38,0,2.73-.72,3.47-2,12.97-22.47,39.28-32.54,63.21-26.03.37.1.74.21,1.1.32.48.14.95.28,1.43.44.33.11.65.22.98.33.54.19,1.08.38,1.62.58.26.1.51.19.77.3.68.27,1.36.56,2.04.86.11.05.22.09.33.14,1.66.75,3.31,1.59,4.92,2.52,17.05,9.81,28.1,28.19,28.1,48.55,0,30.88-25.12,56-56,56h-24c-2.21,0-4,1.79-4,4s1.79,4,4,4h24c35.29,0,64-28.71,64-64,0-23.21-12.56-44.16-31.95-55.39Z"/>
  <path class="cls-2" d="M200,145c-11.03,0-20,8.97-20,20,0,9.66,6.88,17.74,16,19.6v108.4c0,2.21,1.79,4,4,4s4-1.79,4-4v-108.4c9.12-1.86,16-9.94,16-19.6,0-11.03-8.97-20-20-20ZM200,177c-6.62,0-12-5.38-12-12s5.38-12,12-12,12,5.38,12,12-5.38,12-12,12Z"/>
  <path class="cls-2" d="M152,161c-11.03,0-20,8.97-20,20,0,9.66,6.88,17.74,16,19.6v60.4c0,2.21,1.79,4,4,4s4-1.79,4-4v-60.4c9.12-1.86,16-9.94,16-19.6,0-11.03-8.97-20-20-20ZM152,193c-6.62,0-12-5.38-12-12s5.38-12,12-12,12,5.38,12,12-5.38,12-12,12Z"/>
  <path class="cls-2" d="M248,161c-11.03,0-20,8.97-20,20,0,9.66,6.88,17.74,16,19.6v28.4c0,2.21,1.79,4,4,4s4-1.79,4-4v-28.4c9.12-1.86,16-9.94,16-19.6,0-11.03-8.97-20-20-20ZM248,193c-6.62,0-12-5.38-12-12s5.38-12,12-12,12,5.38,12,12-5.38,12-12,12Z"/>
  <g>
    <path class="cls-2" d="M284,313v-8h-48v56h48v-8h8v-40h-8ZM268,353h-16v-40h24v40h-8Z"/>
    <polygon class="cls-2" points="220 313 220 305 212 305 204 305 196 305 188 305 180 305 172 305 172 313 172 321 180 321 180 313 188 313 196 313 204 313 212 313 212 321 212 329 204 329 196 329 188 329 180 329 180 337 172 337 172 345 172 353 172 361 180 361 188 361 196 361 204 361 212 361 220 361 228 361 228 353 220 353 212 353 204 353 196 353 188 353 188 345 188 337 196 337 204 337 212 337 220 337 220 329 228 329 228 321 228 313 220 313"/>
    <polygon class="cls-2" points="124 313 132 313 140 313 148 313 156 313 164 313 164 305 156 305 148 305 140 305 132 305 124 305 116 305 116 313 108 313 108 321 108 329 116 329 116 337 124 337 132 337 140 337 148 337 148 345 148 353 140 353 132 353 124 353 116 353 108 353 108 361 116 361 124 361 132 361 140 361 148 361 156 361 156 353 164 353 164 345 164 337 156 337 156 329 148 329 140 329 132 329 124 329 124 321 124 313"/>
  </g>
</svg>